<?xml version="1.0" encoding="UTF-8" ?>
<!DOCTYPE svg PUBLIC "-//W3C//DTD SVG 1.1//EN" "http://www.w3.org/Graphics/SVG/1.1/DTD/svg11.dtd">
<svg width="200pt" height="200pt" viewBox="0 0 200 200" version="1.1" xmlns="http://www.w3.org/2000/svg">
<g id="#ffffffff">
<path fill="#ffffff" opacity="1.00" d=" M 0.00 0.00 L 200.00 0.00 L 200.00 200.00 L 0.00 200.00 L 0.00 0.00 M 78.26 64.13 C 73.39 66.01 72.43 73.29 76.75 76.28 C 80.90 79.88 88.25 76.51 88.12 71.01 C 88.77 65.87 82.81 62.12 78.26 64.13 M 106.29 74.14 C 103.96 75.01 102.37 77.01 100.88 78.90 C 92.74 89.40 84.44 99.79 76.28 110.27 C 74.95 111.95 73.37 113.99 70.99 113.92 C 67.61 113.97 64.82 110.37 66.00 107.12 C 69.00 100.34 77.15 96.00 77.25 88.01 C 77.79 81.37 71.55 75.38 64.99 75.85 C 61.03 75.71 57.47 78.08 55.19 81.17 C 52.55 84.53 49.93 87.91 47.19 91.19 C 43.51 95.45 43.82 102.34 47.48 106.53 C 54.50 115.19 61.23 124.08 68.23 132.76 C 71.70 137.27 79.26 137.18 82.69 132.66 C 94.20 118.15 105.61 103.55 117.06 89.00 C 120.08 85.46 119.94 79.68 116.63 76.38 C 114.04 73.60 109.79 72.95 106.29 74.14 M 143.29 74.16 C 140.93 74.98 139.34 77.00 137.83 78.88 C 126.88 92.91 115.81 106.85 104.85 120.87 C 101.16 125.24 102.69 132.65 107.88 135.13 C 111.75 137.14 116.97 136.16 119.65 132.64 C 131.12 118.10 142.57 103.54 154.00 88.97 C 157.17 85.27 156.71 79.17 153.00 76.02 C 150.46 73.56 146.55 73.19 143.29 74.16 Z" />
</g>
<g id="#142c76ff">
<path fill="#142c76" opacity="1.00" d=" M 78.26 64.13 C 82.81 62.12 88.77 65.87 88.12 71.01 C 88.25 76.51 80.90 79.88 76.75 76.28 C 72.43 73.29 73.39 66.01 78.26 64.13 Z" />
<path fill="#142c76" opacity="1.00" d=" M 106.29 74.14 C 109.79 72.95 114.04 73.60 116.63 76.38 C 119.94 79.68 120.08 85.46 117.06 89.00 C 105.61 103.55 94.20 118.15 82.69 132.66 C 79.26 137.18 71.70 137.27 68.23 132.76 C 61.23 124.08 54.50 115.19 47.48 106.53 C 43.82 102.34 43.51 95.45 47.19 91.19 C 49.93 87.91 52.55 84.53 55.19 81.17 C 57.47 78.08 61.03 75.71 64.99 75.85 C 71.55 75.38 77.79 81.37 77.25 88.01 C 77.15 96.00 69.00 100.34 66.00 107.12 C 64.82 110.37 67.61 113.97 70.99 113.92 C 73.37 113.99 74.95 111.95 76.28 110.27 C 84.44 99.79 92.74 89.40 100.88 78.90 C 102.37 77.01 103.96 75.01 106.29 74.14 Z" />
<path fill="#142c76" opacity="1.00" d=" M 143.29 74.16 C 146.55 73.19 150.46 73.56 153.00 76.02 C 156.71 79.17 157.17 85.27 154.00 88.97 C 142.57 103.54 131.12 118.10 119.65 132.64 C 116.97 136.16 111.75 137.14 107.88 135.13 C 102.69 132.65 101.16 125.24 104.85 120.87 C 115.81 106.85 126.88 92.91 137.83 78.88 C 139.34 77.00 140.93 74.98 143.29 74.16 Z" />
</g>
</svg>
